<svg
          width="12.59"
          height="37.85"
          viewBox="0 0 13 38"
          fill="red"
          xmlns="http://www.w3.org/2000/svg"
        >
          <path
            d="M5.79369 0.0114521C4.23321 0.209671 3.10367 0.872372 2.07393 2.19777C1.41164 3.04982 0.903572 4.00541 0.468089 5.23022C0.0961129 6.27753 -0.0399758 6.94319 0.00992337 7.44909C0.123331 8.56444 0.599641 9.53778 1.44339 10.378C1.66567 10.5999 1.95146 10.804 2.76799 11.3395C4.11073 12.2182 4.72766 12.7152 5.17222 13.2921C5.43986 13.6442 5.47615 13.7655 5.50791 14.4163C5.53966 15.0909 5.44893 18.0168 5.38089 18.6618C5.33553 19.1026 5.12232 20.6469 4.88643 22.2563C4.70045 23.5492 4.58704 24.4101 4.45549 25.5698C4.02908 29.3182 3.80226 31.2117 3.72968 31.6643C3.51194 32.9779 3.42575 34.537 3.52101 35.3861C3.61174 36.1938 3.82948 36.8328 4.1198 37.1701C4.38291 37.4748 4.89097 37.7026 5.52151 37.8061C5.84359 37.8594 6.74178 37.8594 7.06385 37.8061C7.6944 37.7026 8.20246 37.4748 8.46557 37.1701C9.14601 36.389 9.29117 34.3122 8.85569 31.6643C8.78311 31.2087 8.55175 29.3005 8.12988 25.5698C7.99833 24.4101 7.88492 23.5492 7.69893 22.2563C7.46305 20.641 7.24984 19.1026 7.20448 18.6765C7.13643 18.0553 7.04571 15.0613 7.07746 14.4015C7.10922 13.7655 7.14551 13.6412 7.41315 13.2921C7.8577 12.7152 8.47464 12.2182 9.81738 11.3395C10.6339 10.804 10.9197 10.5999 11.142 10.378C11.9857 9.53778 12.462 8.56444 12.5754 7.44909C12.6253 6.94319 12.4893 6.27753 12.1173 5.23022C11.6818 4.00541 11.1737 3.04982 10.5114 2.19777C9.58603 1.0055 8.52907 0.322093 7.23623 0.0794973C6.91415 0.0203276 6.0568 -0.0210912 5.79369 0.0114521Z"
            fill="#95BD09"
          />
        </svg>